<?xml version="1.0" encoding="UTF-8" standalone="no"?>
<!-- Created with Inkscape (http://www.inkscape.org/) -->

<svg
   xmlns:dc="http://purl.org/dc/elements/1.1/"
   xmlns:cc="http://creativecommons.org/ns#"
   xmlns:rdf="http://www.w3.org/1999/02/22-rdf-syntax-ns#"
   xmlns:svg="http://www.w3.org/2000/svg"
   xmlns="http://www.w3.org/2000/svg"
   xmlns:sodipodi="http://sodipodi.sourceforge.net/DTD/sodipodi-0.dtd"
   xmlns:inkscape="http://www.inkscape.org/namespaces/inkscape"
   version="1.1"
   id="svg2"
   width="150"
   height="150"
   viewBox="0 0 150 150"
   sodipodi:docname="not-found.svg"
   inkscape:version="0.92.1 r15371">
  <metadata
     id="metadata8">
    <rdf:RDF>
      <cc:Work
         rdf:about="">
        <dc:format>image/svg+xml</dc:format>
        <dc:type
           rdf:resource="http://purl.org/dc/dcmitype/StillImage" />
        <dc:title></dc:title>
      </cc:Work>
    </rdf:RDF>
  </metadata>
  <defs
     id="defs6" />
  <sodipodi:namedview
     pagecolor="#ffffff"
     bordercolor="#666666"
     borderopacity="1"
     objecttolerance="10"
     gridtolerance="10"
     guidetolerance="10"
     inkscape:pageopacity="0"
     inkscape:pageshadow="2"
     inkscape:window-width="1920"
     inkscape:window-height="1009"
     id="namedview4"
     showgrid="false"
     inkscape:zoom="1.5733333"
     inkscape:cx="-4.6236022"
     inkscape:cy="0.81248533"
     inkscape:window-x="0"
     inkscape:window-y="0"
     inkscape:window-maximized="1"
     inkscape:current-layer="svg2" />
  <path
     style="fill:#7d8ea0;stroke:none;stroke-width:1.06041336;fill-opacity:1"
     d="M 75.222955,-0.0849113 A 74.942833,74.942833 0 0 0 0.27959476,74.856495 74.942833,74.942833 0 0 0 75.222955,149.79986 74.942833,74.942833 0 0 0 150.16436,74.856495 74.942833,74.942833 0 0 0 75.222955,-0.0849113 Z m 0,11.6835943 A 63.257595,63.257595 0 0 1 138.48076,74.856495 63.257595,63.257595 0 0 1 124.68779,114.18462 L 36.474908,24.895558 A 63.257595,63.257595 0 0 1 75.222955,11.598683 Z M 26.351861,34.74712 115.79522,123.30962 A 63.257595,63.257595 0 0 1 75.222955,138.11431 63.257595,63.257595 0 0 1 11.965142,74.856495 63.257595,63.257595 0 0 1 26.351861,34.74712 Z"
     id="circle823"
     inkscape:connector-curvature="0" />
</svg>
