<?xml version="1.0" encoding="UTF-8" standalone="no"?>
<svg
   xmlns:dc="http://purl.org/dc/elements/1.1/"
   xmlns:cc="http://creativecommons.org/ns#"
   xmlns:rdf="http://www.w3.org/1999/02/22-rdf-syntax-ns#"
   xmlns:svg="http://www.w3.org/2000/svg"
   xmlns="http://www.w3.org/2000/svg"
   xmlns:sodipodi="http://sodipodi.sourceforge.net/DTD/sodipodi-0.dtd"
   xmlns:inkscape="http://www.inkscape.org/namespaces/inkscape"
   enable-background="new 0 0 60 71"
   height="100"
   id="Layer_1"
   version="1.1"
   viewBox="0 0 100 100"
   width="100"
   xml:space="preserve"
   sodipodi:docname="settings.svg"
   inkscape:version="0.92.1 r15371"><metadata
     id="metadata15"><rdf:RDF><cc:Work
         rdf:about=""><dc:format>image/svg+xml</dc:format><dc:type
           rdf:resource="http://purl.org/dc/dcmitype/StillImage" /><dc:title></dc:title></cc:Work></rdf:RDF></metadata><defs
     id="defs13" /><sodipodi:namedview
     pagecolor="#ffffff"
     bordercolor="#666666"
     borderopacity="1"
     objecttolerance="10"
     gridtolerance="10"
     guidetolerance="10"
     inkscape:pageopacity="0"
     inkscape:pageshadow="2"
     inkscape:window-width="1221"
     inkscape:window-height="744"
     id="namedview11"
     showgrid="false"
     inkscape:zoom="3.3239437"
     inkscape:cx="51.531354"
     inkscape:cy="55.917555"
     inkscape:window-x="73"
     inkscape:window-y="32"
     inkscape:window-maximized="0"
     inkscape:current-layer="Layer_1" /><g
     id="g8"
     transform="matrix(1.3982995,0,0,1.3982995,9.0254237,-0.01398966)"
     style="fill:#ffffff"><path
       d="M 57,32 H 54.419 C 53.045,28.119 49.352,25.333 45,25.333 c -4.352,0 -8.045,2.786 -9.419,6.667 H 3 c -1.657,0 -3,1.343 -3,3 0,1.656 1.343,3 3,3 h 32.371 c 1.168,4.227 5.031,7.334 9.629,7.334 4.598,0 8.461,-3.107 9.629,-7.334 H 57 c 1.657,0 3,-1.344 3,-3 0,-1.657 -1.343,-3 -3,-3 z"
       id="path2"
       inkscape:connector-curvature="0"
       style="fill:#ffffff" /><path
       d="M 57,58 H 24.419 C 23.045,54.119 19.352,51.334 15,51.334 10.648,51.334 6.955,54.119 5.581,58 H 3 c -1.657,0 -3,1.344 -3,3 0,1.656 1.343,3 3,3 h 2.371 c 1.168,4.227 5.031,7.334 9.629,7.334 4.598,0 8.461,-3.107 9.629,-7.334 H 57 c 1.657,0 3,-1.344 3,-3 0,-1.656 -1.343,-3 -3,-3 z"
       id="path4"
       inkscape:connector-curvature="0"
       style="fill:#ffffff" /><path
       d="m 3,13 h 2.371 c 1.168,4.227 5.031,7.333 9.629,7.333 4.598,0 8.461,-3.107 9.629,-7.333 H 57 c 1.657,0 3,-1.343 3,-3 C 60,8.343 58.657,7 57,7 H 24.419 C 23.045,3.119 19.352,0.333 15,0.333 10.648,0.333 6.955,3.119 5.581,7 H 3 c -1.657,0 -3,1.343 -3,3 0,1.657 1.343,3 3,3 z"
       id="path6"
       inkscape:connector-curvature="0"
       style="fill:#ffffff" /></g></svg>