<?xml version="1.0" encoding="UTF-8" standalone="no"?>
<svg
   xmlns:dc="http://purl.org/dc/elements/1.1/"
   xmlns:cc="http://creativecommons.org/ns#"
   xmlns:rdf="http://www.w3.org/1999/02/22-rdf-syntax-ns#"
   xmlns:svg="http://www.w3.org/2000/svg"
   xmlns="http://www.w3.org/2000/svg"
   xmlns:sodipodi="http://sodipodi.sourceforge.net/DTD/sodipodi-0.dtd"
   xmlns:inkscape="http://www.inkscape.org/namespaces/inkscape"
   height="100"
   id="Layer_1"
   version="1.1"
   viewBox="0 0 100.00001 99.999999"
   width="100"
   xml:space="preserve"
   sodipodi:docname="startup-apps.svg"
   inkscape:version="0.92.1 r15371"><metadata
     id="metadata72"><rdf:RDF><cc:Work
         rdf:about=""><dc:format>image/svg+xml</dc:format><dc:type
           rdf:resource="http://purl.org/dc/dcmitype/StillImage" /><dc:title /></cc:Work></rdf:RDF></metadata><defs
     id="defs70" /><sodipodi:namedview
     pagecolor="#ffffff"
     bordercolor="#666666"
     borderopacity="1"
     objecttolerance="10"
     gridtolerance="10"
     guidetolerance="10"
     inkscape:pageopacity="0"
     inkscape:pageshadow="2"
     inkscape:window-width="1920"
     inkscape:window-height="1009"
     id="namedview68"
     showgrid="false"
     inkscape:zoom="3.6867511"
     inkscape:cx="23.260885"
     inkscape:cy="35.037848"
     inkscape:window-x="0"
     inkscape:window-y="0"
     inkscape:window-maximized="1"
     inkscape:current-layer="Layer_1" /><g
     id="Legs"
     style="fill:#ffffff"
     transform="matrix(1.5468076,0,0,1.5468063,0.13573266,0.71293321)"><g
       id="g4"
       style="fill:#ffffff"><path
         d="m 38,36.013 -6,6 -4,4 v 6 l -6,10 4,2 14,-14 z m -10,-10 -14,-2 -14,14 2,4 10,-6 h 6 l 4,-4 z"
         style="clip-rule:evenodd;fill:#ffffff;fill-rule:evenodd"
         id="path2"
         inkscape:connector-curvature="0" /></g></g><g
     id="Flames"
     transform="translate(0,35.987)"><g
       id="g9" /></g><g
     id="Flames_1_"
     transform="matrix(1.333181,0,0,1.3430932,-0.30403017,14.426228)"
     style="fill:#ffffff"><g
       id="g14"
       style="fill:#ffffff"><path
         id="path12"
         style="fill:#ffffff"
         d="m 10.629692,48.294342 c -3.9390003,5.748 -6.1981494,6.122115 -6.1981494,9.287115 0,2.091 0.201,2 2,2 3.217,0 3.106318,-2.564793 9.0953184,-6.533793 z M 8.6778271,45.858943 c -3.939,5.748 -8.32200004,10.488 -8.34800004,13.653 -0.021,2.403 1.57600004,4.021 4.00000004,4 3.217,-0.027 7.7259999,-4.317 13.7149999,-8.286 z"
         inkscape:connector-curvature="0" /></g></g><g
     id="Body_2_"
     style="fill:#916f6f"
     transform="matrix(0.99251031,0,0,0.9925095,-1.5e-6,36.46649)"><g
       id="g19"
       style="fill:#916f6f" /></g><g
     id="Glass_1_"
     style="fill:#f4d7d7"
     transform="matrix(1.5468076,0,0,1.5468063,0.13573266,0.71293321)"><g
       id="g34"
       style="fill:#f4d7d7"><path
         id="circle32"
         style="fill:#ffffff"
         d="m 52,16.013 a 4,4 0 0 1 -4,4 4,4 0 0 1 -4,-4 4,4 0 0 1 4,-4 4,4 0 0 1 4,4 z m 8,-16 C 53.714,0.402 42.862,1.15 30,14.013 20.539,23.474 12.239,37.231 8.348,46.36 l 9.367,9.367 C 26.793,51.874 40.459,43.553 50,34.013 c 12.779,-12.779 13.507,-23.669 14,-30 0.22,-2.826 -1.386,-4.162 -4,-4 z"
         inkscape:connector-curvature="0" /></g></g><g
     id="g37"
     transform="translate(0,35.987)" /><g
     id="g39"
     transform="translate(0,35.987)" /><g
     id="g41"
     transform="translate(0,35.987)" /><g
     id="g43"
     transform="translate(0,35.987)" /><g
     id="g45"
     transform="translate(0,35.987)" /><g
     id="g47"
     transform="translate(0,35.987)" /><g
     id="g49"
     transform="translate(0,35.987)" /><g
     id="g51"
     transform="translate(0,35.987)" /><g
     id="g53"
     transform="translate(0,35.987)" /><g
     id="g55"
     transform="translate(0,35.987)" /><g
     id="g57"
     transform="translate(0,35.987)" /><g
     id="g59"
     transform="translate(0,35.987)" /><g
     id="g61"
     transform="translate(0,35.987)" /><g
     id="g63"
     transform="translate(0,35.987)" /><g
     id="g65"
     transform="translate(0,35.987)" /></svg>