<?xml version="1.0" encoding="UTF-8" standalone="no"?>
<!-- Created with Inkscape (http://www.inkscape.org/) -->

<svg
   xmlns:dc="http://purl.org/dc/elements/1.1/"
   xmlns:cc="http://creativecommons.org/ns#"
   xmlns:rdf="http://www.w3.org/1999/02/22-rdf-syntax-ns#"
   xmlns:svg="http://www.w3.org/2000/svg"
   xmlns="http://www.w3.org/2000/svg"
   xmlns:sodipodi="http://sodipodi.sourceforge.net/DTD/sodipodi-0.dtd"
   xmlns:inkscape="http://www.inkscape.org/namespaces/inkscape"
   version="1.1"
   id="svg2"
   width="50"
   height="50"
   viewBox="0 0 50 50"
   sodipodi:docname="collapse.svg"
   inkscape:version="0.91 r13725">
  <metadata
     id="metadata8">
    <rdf:RDF>
      <cc:Work
         rdf:about="">
        <dc:format>image/svg+xml</dc:format>
        <dc:type
           rdf:resource="http://purl.org/dc/dcmitype/StillImage" />
        <dc:title />
      </cc:Work>
    </rdf:RDF>
  </metadata>
  <defs
     id="defs6" />
  <sodipodi:namedview
     pagecolor="#ffffff"
     bordercolor="#666666"
     borderopacity="1"
     objecttolerance="10"
     gridtolerance="10"
     guidetolerance="10"
     inkscape:pageopacity="0"
     inkscape:pageshadow="2"
     inkscape:window-width="1859"
     inkscape:window-height="1056"
     id="namedview4"
     showgrid="false"
     inkscape:zoom="4.72"
     inkscape:cx="-64.83829"
     inkscape:cy="27.287339"
     inkscape:window-x="61"
     inkscape:window-y="24"
     inkscape:window-maximized="1"
     inkscape:current-layer="svg2" />
  <path
     style="fill:#7c8fa2;stroke:none;stroke-width:1.30586421px;stroke-linecap:butt;stroke-linejoin:miter;stroke-opacity:1;fill-opacity:1"
     d="M 12.437061,15.444247 1.6283644,4.8311828 c 0,0 -2.00523427,-1.8096014 -0.4401742,-3.3257527 1.5650599,-1.51615203 3.2279371,0 3.4235699,0.1956324 C 4.8073916,1.8966951 15.811722,12.901024 15.811722,12.901024 V 7.3744061 c 0,0 0,-2.3475904 2.738856,-2.2497746 2.738854,0.097809 2.249773,2.200866 2.249773,2.200866 V 20.628509 H 6.763718 c 0,0 -2.2008664,0.146725 -2.2497749,-2.738856 0,0 -0.3423571,-1.516152 1.565062,-1.56506 1.9074171,-0.0489 7.2873109,0 7.2873109,0 z"
     id="path16"
     inkscape:connector-curvature="0" />
  <path
     inkscape:connector-curvature="0"
     id="path823"
     d="M 37.622984,15.444247 48.43168,4.8311828 c 0,0 2.005235,-1.8096014 0.440174,-3.3257527 -1.565059,-1.51615203 -3.227937,0 -3.423569,0.1956324 C 45.252653,1.8966951 34.248323,12.901024 34.248323,12.901024 V 7.3744061 c 0,0 0,-2.3475904 -2.738856,-2.2497746 -2.738854,0.097809 -2.249773,2.200866 -2.249773,2.200866 V 20.628509 h 14.036633 c 0,0 2.200865,0.146725 2.249774,-2.738856 0,0 0.342358,-1.516152 -1.565061,-1.56506 -1.907418,-0.0489 -7.287311,0 -7.287311,0 z"
     style="fill:#7c8fa2;stroke:none;stroke-width:1.30586421px;stroke-linecap:butt;stroke-linejoin:miter;stroke-opacity:1;fill-opacity:1" />
  <path
     inkscape:connector-curvature="0"
     id="path825"
     d="M 12.437061,34.520733 1.6283644,45.133797 c 0,0 -2.00523427,1.809602 -0.4401742,3.325753 1.5650599,1.516153 3.2279371,0 3.4235699,-0.195633 C 4.8073916,48.068285 15.811722,37.063956 15.811722,37.063956 v 5.526618 c 0,0 0,2.347592 2.738856,2.249774 2.738854,-0.09782 2.249773,-2.200865 2.249773,-2.200865 V 29.336471 H 6.763718 c 0,0 -2.2008664,-0.146725 -2.2497749,2.738856 0,0 -0.3423571,1.516152 1.565062,1.56506 1.9074171,0.0489 7.2873109,0 7.2873109,0 z"
     style="fill:#7c8fa2;stroke:none;stroke-width:1.30586421px;stroke-linecap:butt;stroke-linejoin:miter;stroke-opacity:1;fill-opacity:1" />
  <path
     style="fill:#7c8fa2;stroke:none;stroke-width:1.30586421px;stroke-linecap:butt;stroke-linejoin:miter;stroke-opacity:1;fill-opacity:1"
     d="M 37.622984,34.520733 48.43168,45.133797 c 0,0 2.005235,1.809602 0.440174,3.325753 -1.565059,1.516153 -3.227937,0 -3.423569,-0.195633 C 45.252653,48.068285 34.248323,37.063956 34.248323,37.063956 v 5.526618 c 0,0 0,2.347592 -2.738856,2.249774 -2.738854,-0.09782 -2.249773,-2.200865 -2.249773,-2.200865 V 29.336471 h 14.036633 c 0,0 2.200865,-0.146725 2.249774,2.738856 0,0 0.342358,1.516152 -1.565061,1.56506 -1.907418,0.0489 -7.287311,0 -7.287311,0 z"
     id="path827"
     inkscape:connector-curvature="0" />
</svg>
