<?xml version="1.0" encoding="UTF-8" standalone="no"?>
<svg
   xmlns:dc="http://purl.org/dc/elements/1.1/"
   xmlns:cc="http://creativecommons.org/ns#"
   xmlns:rdf="http://www.w3.org/1999/02/22-rdf-syntax-ns#"
   xmlns:svg="http://www.w3.org/2000/svg"
   xmlns="http://www.w3.org/2000/svg"
   xmlns:sodipodi="http://sodipodi.sourceforge.net/DTD/sodipodi-0.dtd"
   xmlns:inkscape="http://www.inkscape.org/namespaces/inkscape"
   viewBox="0 0 26 26"
   version="1.1"
   fill="#ffffff"
   width="100px"
   height="100px"
   id="svg2"
   inkscape:version="0.91 r13725"
   sodipodi:docname="trash.svg">
  <metadata
     id="metadata11">
    <rdf:RDF>
      <cc:Work
         rdf:about="">
        <dc:format>image/svg+xml</dc:format>
        <dc:type
           rdf:resource="http://purl.org/dc/dcmitype/StillImage" />
        <dc:title></dc:title>
      </cc:Work>
    </rdf:RDF>
  </metadata>
  <defs
     id="defs9" />
  <sodipodi:namedview
     pagecolor="#ffffff"
     bordercolor="#666666"
     borderopacity="1"
     objecttolerance="10"
     gridtolerance="10"
     guidetolerance="10"
     inkscape:pageopacity="0"
     inkscape:pageshadow="2"
     inkscape:window-width="754"
     inkscape:window-height="480"
     id="namedview7"
     showgrid="false"
     inkscape:zoom="2.36"
     inkscape:cx="50"
     inkscape:cy="50"
     inkscape:window-x="61"
     inkscape:window-y="24"
     inkscape:window-maximized="0"
     inkscape:current-layer="svg2" />
  <g
     id="surface1"
     fill="#ffffff"
     style="fill:#7c8fa2;fill-opacity:1">
    <path
       style="fill:#7c8fa2;fill-opacity:1"
       d="M 13 0.1875 C 5.925781 0.1875 0.1875 5.925781 0.1875 13 C 0.1875 20.074219 5.925781 25.8125 13 25.8125 C 20.074219 25.8125 25.8125 20.074219 25.8125 13 C 25.8125 5.925781 20.074219 0.1875 13 0.1875 Z M 18.78125 17.394531 L 17.390625 18.78125 C 17.136719 19.035156 16.722656 19.035156 16.46875 18.78125 L 13 15.3125 L 9.53125 18.78125 C 9.277344 19.035156 8.863281 19.035156 8.609375 18.777344 L 7.21875 17.394531 C 6.96875 17.136719 6.96875 16.726563 7.21875 16.46875 L 10.6875 13 L 7.222656 9.535156 C 6.96875 9.277344 6.96875 8.863281 7.222656 8.609375 L 8.609375 7.222656 C 8.863281 6.964844 9.28125 6.964844 9.535156 7.222656 L 13 10.6875 L 16.46875 7.222656 C 16.722656 6.964844 17.140625 6.964844 17.390625 7.222656 L 18.78125 8.605469 C 19.035156 8.863281 19.035156 9.277344 18.78125 9.535156 L 15.3125 13 L 18.78125 16.46875 C 19.03125 16.726563 19.03125 17.136719 18.78125 17.394531 Z "
       fill="#ffffff"
       id="path5" />
  </g>
</svg>
