<?xml version="1.0" encoding="UTF-8" standalone="no"?>
<!-- Created with Inkscape (http://www.inkscape.org/) -->

<svg
   xmlns:dc="http://purl.org/dc/elements/1.1/"
   xmlns:cc="http://creativecommons.org/ns#"
   xmlns:rdf="http://www.w3.org/1999/02/22-rdf-syntax-ns#"
   xmlns:svg="http://www.w3.org/2000/svg"
   xmlns="http://www.w3.org/2000/svg"
   xmlns:sodipodi="http://sodipodi.sourceforge.net/DTD/sodipodi-0.dtd"
   xmlns:inkscape="http://www.inkscape.org/namespaces/inkscape"
   version="1.1"
   id="svg2"
   width="100"
   height="100"
   viewBox="0 0 100 100"
   sodipodi:docname="app.svg"
   inkscape:version="0.92.1 r15371">
  <metadata
     id="metadata8">
    <rdf:RDF>
      <cc:Work
         rdf:about="">
        <dc:format>image/svg+xml</dc:format>
        <dc:type
           rdf:resource="http://purl.org/dc/dcmitype/StillImage" />
        <dc:title></dc:title>
      </cc:Work>
    </rdf:RDF>
  </metadata>
  <defs
     id="defs6" />
  <sodipodi:namedview
     pagecolor="#ffffff"
     bordercolor="#666666"
     borderopacity="1"
     objecttolerance="10"
     gridtolerance="10"
     guidetolerance="10"
     inkscape:pageopacity="0"
     inkscape:pageshadow="2"
     inkscape:window-width="1920"
     inkscape:window-height="1009"
     id="namedview4"
     showgrid="false"
     inkscape:zoom="4.72"
     inkscape:cx="21.207447"
     inkscape:cy="29.926458"
     inkscape:window-x="0"
     inkscape:window-y="0"
     inkscape:window-maximized="1"
     inkscape:current-layer="svg2" />
  <path
     style="fill:#ffffff;stroke:none;stroke-width:2.08254576px;stroke-linecap:butt;stroke-linejoin:miter;stroke-opacity:1"
     d="m 94.129029,11.477767 c -0.580823,-0.02585 -0.96806,0.0082 -0.96806,0.0082 0,0 -76.994075,0.110295 -85.1565954,0 -8.16252043,-0.110315 -7.82988374,5.73512 -7.82988374,5.73512 V 34.975631 L 99.449281,35.089519 c 0,0 0.110315,-14.22664 0,-19.190334 -0.08274,-3.72277 -3.577789,-4.343784 -5.320252,-4.421341 z m -58.82785,6.573035 H 90.679813 V 31.623954 H 35.301179 Z m -24.429238,1.264983 a 4.5224773,4.5224773 0 0 1 4.523029,4.523031 4.5224773,4.5224773 0 0 1 -4.523029,4.523029 4.5224773,4.5224773 0 0 1 -4.5189612,-4.523029 4.5224773,4.5224773 0 0 1 4.5189612,-4.523031 z m 13.239621,0 a 4.5224773,4.5224773 0 0 1 4.523029,4.523031 4.5224773,4.5224773 0 0 1 -4.523029,4.523029 4.5224773,4.5224773 0 0 1 -4.523027,-4.523029 4.5224773,4.5224773 0 0 1 4.523027,-4.523031 z m 16.6563,3.453285 v 4.962316 H 86.43337 V 22.76907 Z"
     id="path22"
     inkscape:connector-curvature="0" />
  <rect
     style="fill:#ffffff;stroke-width:2.08254576"
     id="rect14"
     width="99.715111"
     height="55.59338"
     x="0.17407624"
     y="40.275265" />
</svg>
