<?xml version="1.0" encoding="UTF-8" standalone="no"?>
<svg
   xmlns:dc="http://purl.org/dc/elements/1.1/"
   xmlns:cc="http://creativecommons.org/ns#"
   xmlns:rdf="http://www.w3.org/1999/02/22-rdf-syntax-ns#"
   xmlns:svg="http://www.w3.org/2000/svg"
   xmlns="http://www.w3.org/2000/svg"
   xmlns:sodipodi="http://sodipodi.sourceforge.net/DTD/sodipodi-0.dtd"
   xmlns:inkscape="http://www.inkscape.org/namespaces/inkscape"
   enable-background="new 0 0 256 256"
   height="256px"
   id="Layer_1"
   version="1.1"
   viewBox="0 0 256 256"
   width="256px"
   xml:space="preserve"
   sodipodi:docname="back.svg"
   inkscape:version="0.92.1 r15371"><metadata
     id="metadata9"><rdf:RDF><cc:Work
         rdf:about=""><dc:format>image/svg+xml</dc:format><dc:type
           rdf:resource="http://purl.org/dc/dcmitype/StillImage" /><dc:title></dc:title></cc:Work></rdf:RDF></metadata><defs
     id="defs7" /><sodipodi:namedview
     pagecolor="#ffffff"
     bordercolor="#666666"
     borderopacity="1"
     objecttolerance="10"
     gridtolerance="10"
     guidetolerance="10"
     inkscape:pageopacity="0"
     inkscape:pageshadow="2"
     inkscape:window-width="1855"
     inkscape:window-height="1056"
     id="namedview5"
     showgrid="false"
     inkscape:zoom="1.3037281"
     inkscape:cx="110.02615"
     inkscape:cy="86.103222"
     inkscape:window-x="65"
     inkscape:window-y="24"
     inkscape:window-maximized="1"
     inkscape:current-layer="Layer_1" /><path
     d="M149.974,191.146c-1.638,0-3.276-0.625-4.524-1.875l-56.748-56.746c-2.5-2.499-2.5-6.552,0-9.05l56.748-56.747  c2.496-2.5,6.553-2.5,9.049,0c2.5,2.499,2.5,6.552,0,9.05L102.278,128l52.22,52.222c2.5,2.499,2.5,6.552,0,9.05  C153.25,190.521,151.611,191.146,149.974,191.146z M256,128C256,57.42,198.58,0,128,0C57.42,0,0,57.42,0,128  c0,70.58,57.42,128,128,128C198.58,256,256,198.58,256,128z M243.2,128c0,63.521-51.679,115.2-115.2,115.2  c-63.522,0-115.2-51.679-115.2-115.2C12.8,64.478,64.478,12.8,128,12.8C191.521,12.8,243.2,64.478,243.2,128z"
     id="path2"
     style="fill:#075ffe;fill-opacity:1" /></svg>