<?xml version="1.0" encoding="UTF-8" standalone="no"?>
<!-- Created with Inkscape (http://www.inkscape.org/) -->

<svg
   xmlns:dc="http://purl.org/dc/elements/1.1/"
   xmlns:cc="http://creativecommons.org/ns#"
   xmlns:rdf="http://www.w3.org/1999/02/22-rdf-syntax-ns#"
   xmlns:svg="http://www.w3.org/2000/svg"
   xmlns="http://www.w3.org/2000/svg"
   xmlns:sodipodi="http://sodipodi.sourceforge.net/DTD/sodipodi-0.dtd"
   xmlns:inkscape="http://www.inkscape.org/namespaces/inkscape"
   version="1.1"
   id="svg2"
   width="50"
   height="50"
   viewBox="0 0 50 50"
   sodipodi:docname="fit.svg"
   inkscape:version="0.92.1 r15371">
  <metadata
     id="metadata8">
    <rdf:RDF>
      <cc:Work
         rdf:about="">
        <dc:format>image/svg+xml</dc:format>
        <dc:type
           rdf:resource="http://purl.org/dc/dcmitype/StillImage" />
        <dc:title />
      </cc:Work>
    </rdf:RDF>
  </metadata>
  <defs
     id="defs6" />
  <sodipodi:namedview
     pagecolor="#ffffff"
     bordercolor="#666666"
     borderopacity="1"
     objecttolerance="10"
     gridtolerance="10"
     guidetolerance="10"
     inkscape:pageopacity="0"
     inkscape:pageshadow="2"
     inkscape:window-width="1920"
     inkscape:window-height="1009"
     id="namedview4"
     showgrid="false"
     inkscape:zoom="4.72"
     inkscape:cx="-25.643375"
     inkscape:cy="26.86361"
     inkscape:window-x="0"
     inkscape:window-y="0"
     inkscape:window-maximized="1"
     inkscape:current-layer="svg2" />
  <path
     style="fill:#ffffff;stroke:none;stroke-width:1.30586421px;stroke-linecap:butt;stroke-linejoin:miter;stroke-opacity:1"
     d="M 8.9880359,6.0241199 19.796732,16.637184 c 0,0 2.005235,1.809602 0.440175,3.325753 -1.56506,1.516152 -3.227937,0 -3.42357,-0.195633 C 16.617705,19.571672 5.6133749,8.5673429 5.6133749,8.5673429 v 5.5266181 c 0,0 0,2.34759 -2.738856,2.249774 C 0.13566487,16.245925 0.62474587,14.142869 0.62474587,14.142869 V 0.83985793 H 14.661379 c 0,0 2.200866,-0.146725 2.249775,2.73885597 0,0 0.342357,1.516152 -1.565062,1.56506 -1.907417,0.0489 -7.2873111,0 -7.2873111,0 z"
     id="path16"
     inkscape:connector-curvature="0" />
  <path
     inkscape:connector-curvature="0"
     id="path823"
     d="M 41.072009,6.0241199 30.263313,16.637184 c 0,0 -2.005235,1.809602 -0.440174,3.325753 1.565059,1.516152 3.227937,0 3.423569,-0.195633 C 33.44234,19.571672 44.44667,8.5673429 44.44667,8.5673429 v 5.5266181 c 0,0 0,2.34759 2.738856,2.249774 2.738854,-0.09781 2.249773,-2.200866 2.249773,-2.200866 V 0.83985791 H 35.398666 c 0,0 -2.200865,-0.146725 -2.249774,2.73885599 0,0 -0.342358,1.516152 1.565061,1.56506 1.907418,0.0489 7.287311,0 7.287311,0 z"
     style="fill:#ffffff;stroke:none;stroke-width:1.30586421px;stroke-linecap:butt;stroke-linejoin:miter;stroke-opacity:1" />
  <path
     inkscape:connector-curvature="0"
     id="path825"
     d="M 8.9880359,43.940861 19.796732,33.327797 c 0,0 2.005235,-1.809602 0.440175,-3.325753 -1.56506,-1.516153 -3.227937,0 -3.42357,0.195633 C 16.617705,30.393309 5.6133749,41.397638 5.6133749,41.397638 V 35.87102 c 0,0 0,-2.347592 -2.738856,-2.249774 -2.73885403,0.09782 -2.24977303,2.200865 -2.24977303,2.200865 V 49.125123 H 14.661379 c 0,0 2.200866,0.146725 2.249775,-2.738856 0,0 0.342357,-1.516152 -1.565062,-1.56506 -1.907417,-0.0489 -7.2873111,0 -7.2873111,0 z"
     style="fill:#ffffff;stroke:none;stroke-width:1.30586421px;stroke-linecap:butt;stroke-linejoin:miter;stroke-opacity:1" />
  <path
     style="fill:#ffffff;stroke:none;stroke-width:1.30586421px;stroke-linecap:butt;stroke-linejoin:miter;stroke-opacity:1"
     d="M 41.072009,43.940861 30.263313,33.327797 c 0,0 -2.005235,-1.809602 -0.440174,-3.325753 1.565059,-1.516153 3.227937,0 3.423569,0.195633 0.195632,0.195632 11.199962,11.199961 11.199962,11.199961 V 35.87102 c 0,0 0,-2.347592 2.738856,-2.249774 2.738854,0.09782 2.249773,2.200865 2.249773,2.200865 V 49.125123 H 35.398666 c 0,0 -2.200865,0.146725 -2.249774,-2.738856 0,0 -0.342358,-1.516152 1.565061,-1.56506 1.907418,-0.0489 7.287311,0 7.287311,0 z"
     id="path827"
     inkscape:connector-curvature="0" />
</svg>
