<?xml version="1.0" encoding="UTF-8" standalone="no"?>
<svg
   xmlns:dc="http://purl.org/dc/elements/1.1/"
   xmlns:cc="http://creativecommons.org/ns#"
   xmlns:rdf="http://www.w3.org/1999/02/22-rdf-syntax-ns#"
   xmlns:svg="http://www.w3.org/2000/svg"
   xmlns="http://www.w3.org/2000/svg"
   xmlns:sodipodi="http://sodipodi.sourceforge.net/DTD/sodipodi-0.dtd"
   xmlns:inkscape="http://www.inkscape.org/namespaces/inkscape"
   height="100"
   viewBox="0 0 100 100"
   width="100"
   version="1.1"
   id="svg16"
   sodipodi:docname="package.svg"
   inkscape:version="0.92.1 r15371">
  <metadata
     id="metadata22">
    <rdf:RDF>
      <cc:Work
         rdf:about="">
        <dc:format>image/svg+xml</dc:format>
        <dc:type
           rdf:resource="http://purl.org/dc/dcmitype/StillImage" />
      </cc:Work>
    </rdf:RDF>
  </metadata>
  <defs
     id="defs20" />
  <sodipodi:namedview
     pagecolor="#ffffff"
     bordercolor="#666666"
     borderopacity="1"
     objecttolerance="10"
     gridtolerance="10"
     guidetolerance="10"
     inkscape:pageopacity="0"
     inkscape:pageshadow="2"
     inkscape:window-width="1855"
     inkscape:window-height="1056"
     id="namedview18"
     showgrid="false"
     inkscape:zoom="3.337544"
     inkscape:cx="83.022614"
     inkscape:cy="90.53784"
     inkscape:window-x="65"
     inkscape:window-y="24"
     inkscape:window-maximized="1"
     inkscape:current-layer="svg16" />
  <path
     d="M -0.08964167,24.95833 49.986,-0.05528862 100.06164,24.95833 100.03327,28.264881 49.986,53.308544 -0.06961209,28.30494 Z"
     id="path4"
     inkscape:export-filename="/home/oguzhan/Documents/Stacer-Develop/stacer/static/themes/default/img/package.png"
     inkscape:export-xdpi="38.39872"
     inkscape:export-ydpi="38.39872"
     inkscape:connector-curvature="0"
     style="fill:#efc75e;stroke-width:1.66913247" />
  <path
     d="M -0.08797254,24.95833 49.94761,49.993647 100.05997,24.95833 V 75.032302 L 49.804065,100.06929 -0.08797254,75.032302 Z"
     id="path6"
     inkscape:export-filename="/home/oguzhan/Documents/Stacer-Develop/stacer/static/themes/default/img/package.png"
     inkscape:export-xdpi="38.39872"
     inkscape:export-ydpi="38.39872"
     inkscape:connector-curvature="0"
     style="fill:#e7bf55;stroke-width:1.66913247" />
  <path
     d="M 49.986,99.977486 V 49.973617 L 49.94761,49.993647 -0.08797254,24.95833 V 75.032302 L 49.804065,100.06929 Z"
     id="path8"
     inkscape:export-filename="/home/oguzhan/Documents/Stacer-Develop/stacer/static/themes/default/img/package.png"
     inkscape:export-xdpi="38.39872"
     inkscape:export-ydpi="38.39872"
     inkscape:connector-curvature="0"
     style="fill:#dbb551;stroke-width:1.66913247" />
  <path
     d="m 70.022266,39.965499 v 14.675013 l 4.469936,0.360532 2.849209,-3.393346 2.682296,0.42229 V 34.968117 Z"
     id="path10"
     inkscape:export-filename="/home/oguzhan/Documents/Stacer-Develop/stacer/static/themes/default/img/package.png"
     inkscape:export-xdpi="38.39872"
     inkscape:export-ydpi="38.39872"
     inkscape:connector-curvature="0"
     style="fill:#f1d999;stroke-width:1.66913247" />
  <path
     d="M 19.909903,14.968572 70.835133,40.471246 80.0187,35.029875 29.944727,9.9544985 Z"
     id="path12"
     inkscape:export-filename="/home/oguzhan/Documents/Stacer-Develop/stacer/static/themes/default/img/package.png"
     inkscape:export-xdpi="38.39872"
     inkscape:export-ydpi="38.39872"
     inkscape:connector-curvature="0"
     style="fill:#f7e3af;stroke-width:1.66913247" />
  <path
     d="M 39.959522,71.897672 23.294904,63.535318 c -0.919692,-0.462349 -1.665795,0.100148 -1.665795,1.253519 v 10.450438 c 0,1.155039 0.746103,2.466977 1.665795,2.927658 l 16.664618,8.362353 c 0.919692,0.460681 1.665794,-0.101817 1.665794,-1.255187 V 74.823661 c 0,-1.153371 -0.747772,-2.465309 -1.665794,-2.925989 z m -4.167824,8.360684 -9.998103,-5.019081 c -0.459012,-0.230341 -0.832897,-0.88464 -0.832897,-1.46216 0,-0.57752 0.373885,-0.857934 0.832897,-0.627594 l 9.998103,5.017412 c 0.459011,0.232009 0.832897,0.886309 0.832897,1.463829 0,0.57752 -0.372217,0.857934 -0.832897,0.627594 z m 1.665794,-3.344941 -11.663897,-5.853648 c -0.459012,-0.232009 -0.832897,-0.886309 -0.832897,-1.463829 0,-0.57752 0.373885,-0.857934 0.832897,-0.627594 l 11.663897,5.855317 c 0.460681,0.23034 0.832897,0.886309 0.832897,1.46216 0,0.57752 -0.370547,0.859603 -0.832897,0.627594 z"
     id="path14"
     inkscape:export-filename="/home/oguzhan/Documents/Stacer-Develop/stacer/static/themes/default/img/package.png"
     inkscape:export-xdpi="38.39872"
     inkscape:export-ydpi="38.39872"
     inkscape:connector-curvature="0"
     style="fill:#f2f2f2;stroke-width:1.66913247" />
</svg>
