<?xml version="1.0" encoding="UTF-8" standalone="no"?>
<svg
   xmlns:dc="http://purl.org/dc/elements/1.1/"
   xmlns:cc="http://creativecommons.org/ns#"
   xmlns:rdf="http://www.w3.org/1999/02/22-rdf-syntax-ns#"
   xmlns:svg="http://www.w3.org/2000/svg"
   xmlns="http://www.w3.org/2000/svg"
   xmlns:sodipodi="http://sodipodi.sourceforge.net/DTD/sodipodi-0.dtd"
   xmlns:inkscape="http://www.inkscape.org/namespaces/inkscape"
   enable-background="new 0 0 512 512"
   version="1.1"
   viewBox="0 0 100 100"
   xml:space="preserve"
   id="svg14"
   sodipodi:docname="if_Cancel_Icon_919983.svg"
   inkscape:version="0.92.1 r15371"
   width="100"
   height="100"><metadata
     id="metadata20"><rdf:RDF><cc:Work
         rdf:about=""><dc:format>image/svg+xml</dc:format><dc:type
           rdf:resource="http://purl.org/dc/dcmitype/StillImage" /><dc:title></dc:title></cc:Work></rdf:RDF></metadata><defs
     id="defs18" /><sodipodi:namedview
     pagecolor="#ffffff"
     bordercolor="#666666"
     borderopacity="1"
     objecttolerance="10"
     gridtolerance="10"
     guidetolerance="10"
     inkscape:pageopacity="0"
     inkscape:pageshadow="2"
     inkscape:window-width="1920"
     inkscape:window-height="998"
     id="namedview16"
     showgrid="false"
     inkscape:zoom="7.375"
     inkscape:cx="64.131014"
     inkscape:cy="37.242355"
     inkscape:window-x="0"
     inkscape:window-y="0"
     inkscape:window-maximized="1"
     inkscape:current-layer="svg14" /><g
     id="Layer_6"
     transform="translate(0,-412)" /><g
     id="g846"
     transform="matrix(0.19571228,0,0,0.19571228,-0.23494946,80.659091)"><path
       inkscape:connector-curvature="0"
       id="path3"
       d="m 256.5,-410.44922 c -65.12195,0 -130.24375,24.8414 -179.925781,74.52344 -99.364072,99.36575 -99.364072,260.48749 0,359.85156 99.365751,99.36408 260.487491,99.36408 359.851561,0 99.36408,-99.36407 99.36408,-260.48749 0,-359.85156 C 386.74291,-385.60782 321.62195,-410.44922 256.5,-410.44922 Z m -0.89258,50.23047 A 204.61119,204.61119 0 0 1 460.21875,-155.60742 204.61119,204.61119 0 0 1 255.60742,49.00391 204.61119,204.61119 0 0 1 50.996094,-155.60742 204.61119,204.61119 0 0 1 255.60742,-360.21875 Z"
       style="fill:#075ffe;fill-opacity:1;stroke-width:1.67768204" /><g
       style="fill:#075ffe;fill-opacity:1"
       transform="matrix(1.677682,0,0,1.677682,-173.82543,-585.48659)"
       id="Layer_7"><g
         style="fill:#075ffe;fill-opacity:1"
         id="g11"><path
           style="fill:#075ffe;fill-opacity:1"
           inkscape:connector-curvature="0"
           id="path9"
           d="m 332.461,253.354 c 2.858,1.65 2.858,4.35 0,6 l -112.094,64.717 c -2.858,1.65 -5.196,0.3 -5.196,-3 V 191.636 c 0,-3.3 2.338,-4.65 5.196,-3 z" /></g></g></g></svg>