<?xml version="1.0" encoding="UTF-8" standalone="no"?>
<!-- Created with Inkscape (http://www.inkscape.org/) -->

<svg
   xmlns:dc="http://purl.org/dc/elements/1.1/"
   xmlns:cc="http://creativecommons.org/ns#"
   xmlns:rdf="http://www.w3.org/1999/02/22-rdf-syntax-ns#"
   xmlns:svg="http://www.w3.org/2000/svg"
   xmlns="http://www.w3.org/2000/svg"
   xmlns:sodipodi="http://sodipodi.sourceforge.net/DTD/sodipodi-0.dtd"
   xmlns:inkscape="http://www.inkscape.org/namespaces/inkscape"
   version="1.1"
   id="svg2"
   width="27.906977"
   height="20.093023"
   viewBox="0 0 27.906977 20.093023"
   sodipodi:docname="search.svg"
   inkscape:version="0.92.1 r15371">
  <metadata
     id="metadata8">
    <rdf:RDF>
      <cc:Work
         rdf:about="">
        <dc:format>image/svg+xml</dc:format>
        <dc:type
           rdf:resource="http://purl.org/dc/dcmitype/StillImage" />
        <dc:title></dc:title>
      </cc:Work>
    </rdf:RDF>
  </metadata>
  <defs
     id="defs6" />
  <sodipodi:namedview
     pagecolor="#ffffff"
     bordercolor="#666666"
     borderopacity="1"
     objecttolerance="10"
     gridtolerance="10"
     guidetolerance="10"
     inkscape:pageopacity="0"
     inkscape:pageshadow="2"
     inkscape:window-width="1920"
     inkscape:window-height="1009"
     id="namedview4"
     showgrid="false"
     inkscape:zoom="12.364941"
     inkscape:cx="8.8052827"
     inkscape:cy="-4.8527803"
     inkscape:window-x="0"
     inkscape:window-y="0"
     inkscape:window-maximized="1"
     inkscape:current-layer="svg2" />
  <g
     id="Page-1"
     style="fill:#8293a5;fill-opacity:0.95294118;fill-rule:evenodd;stroke:none;stroke-width:1"
     transform="matrix(0.62622418,0,0,0.62622418,-0.88686181,-1.0634693)">
    <g
       id="icon-111-search"
       style="fill:#8293a5;fill-opacity:0.95294118">
      <path
         id="search"
         d="M 19.427116,21.427116 C 18.03725,22.41748 16.336652,23 14.5,23 9.8055794,23 6,19.194421 6,14.5 6,9.8055794 9.8055794,6 14.5,6 c 4.694421,0 8.5,3.8055794 8.5,8.5 0,1.836652 -0.58252,3.53725 -1.572884,4.927116 l 5.584802,5.584802 c 0.550201,0.550201 0.545613,1.430551 -2e-4,1.976363 l -0.02344,0.02344 c -0.544416,0.544417 -1.430661,0.545902 -1.976363,2e-4 z M 14.5,21 C 18.089851,21 21,18.089851 21,14.5 21,10.910149 18.089851,8 14.5,8 10.910149,8 8,10.910149 8,14.5 8,18.089851 10.910149,21 14.5,21 Z"
         inkscape:connector-curvature="0"
         style="fill:#8293a5;fill-opacity:0.95294118" />
    </g>
  </g>
</svg>
