<?xml version="1.0" encoding="UTF-8" standalone="no"?>
<svg
   xmlns:dc="http://purl.org/dc/elements/1.1/"
   xmlns:cc="http://creativecommons.org/ns#"
   xmlns:rdf="http://www.w3.org/1999/02/22-rdf-syntax-ns#"
   xmlns:svg="http://www.w3.org/2000/svg"
   xmlns="http://www.w3.org/2000/svg"
   xmlns:sodipodi="http://sodipodi.sourceforge.net/DTD/sodipodi-0.dtd"
   xmlns:inkscape="http://www.inkscape.org/namespaces/inkscape"
   height="100"
   version="1.1"
   viewBox="0 0 100 100"
   width="100"
   id="svg12"
   sodipodi:docname="service.svg"
   inkscape:version="0.92.1 r15371">
  <metadata
     id="metadata16">
    <rdf:RDF>
      <cc:Work
         rdf:about="">
        <dc:format>image/svg+xml</dc:format>
        <dc:type
           rdf:resource="http://purl.org/dc/dcmitype/StillImage" />
        <dc:title />
      </cc:Work>
    </rdf:RDF>
  </metadata>
  <sodipodi:namedview
     pagecolor="#ffffff"
     bordercolor="#666666"
     borderopacity="1"
     objecttolerance="10"
     gridtolerance="10"
     guidetolerance="10"
     inkscape:pageopacity="0"
     inkscape:pageshadow="2"
     inkscape:window-width="1920"
     inkscape:window-height="1009"
     id="namedview14"
     showgrid="false"
     inkscape:zoom="2.95"
     inkscape:cx="-27.955646"
     inkscape:cy="50.510516"
     inkscape:window-x="0"
     inkscape:window-y="0"
     inkscape:window-maximized="1"
     inkscape:current-layer="svg12" />
  <desc
     id="desc4" />
  <defs
     id="defs6" />
  <g
     id="Page-1"
     style="fill:#e67e22;fill-rule:evenodd;stroke:none;stroke-width:1;fill-opacity:1"
     transform="matrix(3.1316297,0,0,3.1316297,-0.55586406,37.580567)">
    <g
       id="Core"
       transform="translate(-464,-380)"
       style="fill:#e67e22;fill-opacity:1">
      <g
         id="settings"
         transform="translate(464,380)"
         style="fill:#e67e22;fill-opacity:1">
        <path
           d="m 17.4,11 c 0,-0.3 0.1,-0.6 0.1,-1 0,-0.4 0,-0.7 -0.1,-1 l 2.1,-1.7 c 0.2,-0.2 0.2,-0.4 0.1,-0.6 l -2,-3.5 C 17.5,3.1 17.3,3 17,3.1 l -2.5,1 C 14,3.7 13.4,3.4 12.8,3.1 L 12.4,0.5 C 12.5,0.2 12.2,0 12,0 H 8 C 7.8,0 7.5,0.2 7.5,0.4 L 7.1,3.1 C 6.5,3.3 6,3.7 5.4,4.1 L 3,3.1 C 2.7,3 2.5,3.1 2.3,3.3 l -2,3.5 c -0.1,0.1 0,0.4 0.2,0.6 L 2.6,9 c 0,0.3 -0.1,0.6 -0.1,1 0,0.4 0,0.7 0.1,1 l -2.1,1.7 c -0.2,0.2 -0.2,0.4 -0.1,0.6 l 2,3.5 C 2.5,16.9 2.7,17 3,16.9 l 2.5,-1 c 0.5,0.4 1.1,0.7 1.7,1 l 0.4,2.6 c 0,0.2 0.2,0.4 0.5,0.4 h 4 c 0.2,0 0.5,-0.2 0.5,-0.4 L 13,16.9 c 0.6,-0.3 1.2,-0.6 1.7,-1 l 2.5,1 c 0.2,0.1 0.5,0 0.6,-0.2 l 2,-3.5 C 19.9,13 19.9,12.7 19.7,12.6 Z M 10,13.5 C 8.1,13.5 6.5,11.9 6.5,10 6.5,8.1 8.1,6.5 10,6.5 c 1.9,0 3.5,1.6 3.5,3.5 0,1.9 -1.6,3.5 -3.5,3.5 z"
           id="Shape"
           inkscape:connector-curvature="0"
           style="fill:#e67e22;fill-opacity:1" />
      </g>
    </g>
  </g>
  <g
     transform="matrix(2.4644233,0,0,2.4644233,50.419821,0.3902719)"
     style="fill:#ffffff;fill-rule:evenodd;stroke:none;stroke-width:1"
     id="g24">
    <g
       style="fill:#ffffff"
       transform="translate(-464,-380)"
       id="g22">
      <g
         transform="translate(464,380)"
         id="g20"
         style="fill:#ffffff">
        <path
           inkscape:connector-curvature="0"
           id="path18"
           d="m 17.4,11 c 0,-0.3 0.1,-0.6 0.1,-1 0,-0.4 0,-0.7 -0.1,-1 l 2.1,-1.7 c 0.2,-0.2 0.2,-0.4 0.1,-0.6 l -2,-3.5 C 17.5,3.1 17.3,3 17,3.1 l -2.5,1 C 14,3.7 13.4,3.4 12.8,3.1 L 12.4,0.5 C 12.5,0.2 12.2,0 12,0 H 8 C 7.8,0 7.5,0.2 7.5,0.4 L 7.1,3.1 C 6.5,3.3 6,3.7 5.4,4.1 L 3,3.1 C 2.7,3 2.5,3.1 2.3,3.3 l -2,3.5 c -0.1,0.1 0,0.4 0.2,0.6 L 2.6,9 c 0,0.3 -0.1,0.6 -0.1,1 0,0.4 0,0.7 0.1,1 l -2.1,1.7 c -0.2,0.2 -0.2,0.4 -0.1,0.6 l 2,3.5 C 2.5,16.9 2.7,17 3,16.9 l 2.5,-1 c 0.5,0.4 1.1,0.7 1.7,1 l 0.4,2.6 c 0,0.2 0.2,0.4 0.5,0.4 h 4 c 0.2,0 0.5,-0.2 0.5,-0.4 L 13,16.9 c 0.6,-0.3 1.2,-0.6 1.7,-1 l 2.5,1 c 0.2,0.1 0.5,0 0.6,-0.2 l 2,-3.5 C 19.9,13 19.9,12.7 19.7,12.6 Z M 10,13.5 C 8.1,13.5 6.5,11.9 6.5,10 6.5,8.1 8.1,6.5 10,6.5 c 1.9,0 3.5,1.6 3.5,3.5 0,1.9 -1.6,3.5 -3.5,3.5 z"
           style="fill:#e67e22;fill-opacity:1" />
      </g>
    </g>
  </g>
</svg>
